<mxfile host="app.diagrams.net" agent="Mozilla/5.0 (Windows NT 10.0; Win64; x64) AppleWebKit/537.36 (KHTML, like Gecko) Chrome/136.0.0.0 Safari/537.36" version="27.1.1">
  <diagram name="PÃ¡gina-1" id="jNSIenQPF7zGWqRyZif5">
    <mxGraphModel dx="1412" dy="729" grid="1" gridSize="10" guides="1" tooltips="1" connect="1" arrows="1" fold="1" page="1" pageScale="1" pageWidth="827" pageHeight="1169" math="0" shadow="0">
      <root>
        <mxCell id="0" />
        <mxCell id="1" parent="0" />
        <mxCell id="3VoPNrxfCV9TI2f0J-yM-32" value="" style="rounded=0;whiteSpace=wrap;html=1;" vertex="1" parent="1">
          <mxGeometry x="224" y="170" width="940" height="450" as="geometry" />
        </mxCell>
        <mxCell id="3VoPNrxfCV9TI2f0J-yM-1" style="edgeStyle=none;curved=0;rounded=1;orthogonalLoop=1;jettySize=auto;html=1;fontSize=12;startSize=8;endSize=8;strokeColor=none;endArrow=none;startFill=0;" edge="1" parent="1" target="3VoPNrxfCV9TI2f0J-yM-32">
          <mxGeometry relative="1" as="geometry">
            <mxPoint x="290" y="270" as="targetPoint" />
            <mxPoint x="610" y="270" as="sourcePoint" />
          </mxGeometry>
        </mxCell>
        <mxCell id="3VoPNrxfCV9TI2f0J-yM-2" style="edgeStyle=orthogonalEdgeStyle;rounded=0;orthogonalLoop=1;jettySize=auto;html=1;" edge="1" parent="1" source="3VoPNrxfCV9TI2f0J-yM-3">
          <mxGeometry relative="1" as="geometry">
            <mxPoint x="400" y="446" as="targetPoint" />
          </mxGeometry>
        </mxCell>
        <mxCell id="3VoPNrxfCV9TI2f0J-yM-34" value="l" style="edgeLabel;html=1;align=center;verticalAlign=middle;resizable=0;points=[];" vertex="1" connectable="0" parent="3VoPNrxfCV9TI2f0J-yM-2">
          <mxGeometry x="-0.166" relative="1" as="geometry">
            <mxPoint as="offset" />
          </mxGeometry>
        </mxCell>
        <mxCell id="3VoPNrxfCV9TI2f0J-yM-35" value="&lt;div&gt;&lt;br&gt;&lt;/div&gt;&lt;div&gt;&lt;br&gt;&lt;/div&gt;" style="edgeLabel;html=1;align=center;verticalAlign=middle;resizable=0;points=[];" vertex="1" connectable="0" parent="3VoPNrxfCV9TI2f0J-yM-2">
          <mxGeometry x="-0.2851" y="1" relative="1" as="geometry">
            <mxPoint as="offset" />
          </mxGeometry>
        </mxCell>
        <mxCell id="3VoPNrxfCV9TI2f0J-yM-3" value="&lt;font style=&quot;font-size: 9px; color: light-dark(rgb(254, 251, 251), rgb(237, 237, 237));&quot;&gt;Aplication Service Tomcat&lt;/font&gt;" style="swimlane;whiteSpace=wrap;html=1;startSize=23;fillColor=#143687;strokeColor=light-dark(#11858d, #46a8af);" vertex="1" parent="1">
          <mxGeometry x="517" y="341" width="250" height="210" as="geometry" />
        </mxCell>
        <mxCell id="3VoPNrxfCV9TI2f0J-yM-4" value="" style="rounded=1;whiteSpace=wrap;html=1;fillColor=#17799F;fontColor=#ffffff;strokeColor=#006EAF;" vertex="1" parent="3VoPNrxfCV9TI2f0J-yM-3">
          <mxGeometry x="15.75" y="66" width="214.25" height="140" as="geometry" />
        </mxCell>
        <mxCell id="3VoPNrxfCV9TI2f0J-yM-5" value="ms-conversiondivisas" style="text;html=1;align=center;verticalAlign=middle;resizable=0;points=[];autosize=1;strokeColor=none;fillColor=none;fontSize=16;" vertex="1" parent="3VoPNrxfCV9TI2f0J-yM-3">
          <mxGeometry x="36" y="21" width="180" height="30" as="geometry" />
        </mxCell>
        <mxCell id="3VoPNrxfCV9TI2f0J-yM-7" value="&lt;font style=&quot;font-size: 12px; color: rgb(255, 255, 255);&quot;&gt;ConversionDivisasController&lt;/font&gt;" style="text;html=1;align=center;verticalAlign=middle;resizable=0;points=[];autosize=1;strokeColor=none;fillColor=none;fontSize=16;" vertex="1" parent="3VoPNrxfCV9TI2f0J-yM-3">
          <mxGeometry x="45.75" y="66" width="170" height="30" as="geometry" />
        </mxCell>
        <mxCell id="3VoPNrxfCV9TI2f0J-yM-8" style="edgeStyle=orthogonalEdgeStyle;rounded=0;orthogonalLoop=1;jettySize=auto;html=1;entryX=0.5;entryY=0;entryDx=0;entryDy=0;" edge="1" parent="3VoPNrxfCV9TI2f0J-yM-3" source="3VoPNrxfCV9TI2f0J-yM-9" target="3VoPNrxfCV9TI2f0J-yM-10">
          <mxGeometry relative="1" as="geometry" />
        </mxCell>
        <mxCell id="3VoPNrxfCV9TI2f0J-yM-9" value="&lt;font style=&quot;color: rgb(255, 255, 255);&quot;&gt;@GetMapping(&quot;/latest&quot;)&lt;/font&gt;" style="rounded=1;whiteSpace=wrap;html=1;strokeColor=#FFFFFF;fillColor=#1DBDBF;" vertex="1" parent="3VoPNrxfCV9TI2f0J-yM-3">
          <mxGeometry x="40" y="94" width="166" height="35" as="geometry" />
        </mxCell>
        <mxCell id="3VoPNrxfCV9TI2f0J-yM-10" value="&lt;font style=&quot;color: rgb(255, 255, 255);&quot;&gt;@PostMapping(&quot;/api/v1/conversion-divisas&quot;)&lt;/font&gt;" style="rounded=1;whiteSpace=wrap;html=1;strokeColor=#FFFFFF;fillColor=#1DBDBF;" vertex="1" parent="3VoPNrxfCV9TI2f0J-yM-3">
          <mxGeometry x="23" y="162" width="200" height="35" as="geometry" />
        </mxCell>
        <mxCell id="3VoPNrxfCV9TI2f0J-yM-11" value="Jdk 21+ SO" style="rounded=1;whiteSpace=wrap;html=1;fillColor=#fad7ac;strokeColor=#b46504;" vertex="1" parent="1">
          <mxGeometry x="492" y="561" width="290" height="20" as="geometry" />
        </mxCell>
        <mxCell id="3VoPNrxfCV9TI2f0J-yM-12" style="edgeStyle=none;curved=1;rounded=0;orthogonalLoop=1;jettySize=auto;html=1;fontSize=12;startSize=8;endSize=8;" edge="1" parent="1">
          <mxGeometry relative="1" as="geometry">
            <mxPoint x="652.5" y="310" as="sourcePoint" />
            <mxPoint x="652.5" y="340" as="targetPoint" />
          </mxGeometry>
        </mxCell>
        <mxCell id="3VoPNrxfCV9TI2f0J-yM-13" value="&lt;font size=&quot;1&quot;&gt;Admin&lt;/font&gt;" style="swimlane;whiteSpace=wrap;html=1;startSize=23;fillColor=#FFFF99;strokeColor=light-dark(#11858d, #46a8af);" vertex="1" parent="1">
          <mxGeometry x="290" y="380" width="110" height="130" as="geometry" />
        </mxCell>
        <mxCell id="3VoPNrxfCV9TI2f0J-yM-15" value="Logstash" style="rounded=1;whiteSpace=wrap;html=1;fillColor=#9CB814;fontColor=#ffffff;strokeColor=#006EAF;" vertex="1" parent="3VoPNrxfCV9TI2f0J-yM-13">
          <mxGeometry x="10" y="35" width="88.5" height="60" as="geometry" />
        </mxCell>
        <mxCell id="3VoPNrxfCV9TI2f0J-yM-16" value="" style="dashed=0;outlineConnect=0;html=1;align=center;labelPosition=center;verticalLabelPosition=bottom;verticalAlign=top;shape=mxgraph.weblogos.chrome" vertex="1" parent="1">
          <mxGeometry x="625" y="210" width="50" height="35" as="geometry" />
        </mxCell>
        <mxCell id="3VoPNrxfCV9TI2f0J-yM-18" value="" style="points=[];aspect=fixed;html=1;align=center;shadow=0;dashed=0;fillColor=#FF6A00;strokeColor=none;shape=mxgraph.alibaba_cloud.user;" vertex="1" parent="1">
          <mxGeometry x="415" y="200" width="50" height="50" as="geometry" />
        </mxCell>
        <mxCell id="3VoPNrxfCV9TI2f0J-yM-19" value="Api Divisas euros" style="aspect=fixed;sketch=0;html=1;dashed=0;whitespace=wrap;verticalLabelPosition=bottom;verticalAlign=top;fillColor=#2875E2;strokeColor=#ffffff;points=[[0.005,0.63,0],[0.1,0.2,0],[0.9,0.2,0],[0.5,0,0],[0.995,0.63,0],[0.72,0.99,0],[0.5,1,0],[0.28,0.99,0]];shape=mxgraph.kubernetes.icon2;kubernetesLabel=1;prIcon=api" vertex="1" parent="1">
          <mxGeometry x="908" y="418.4" width="76.25" height="73.2" as="geometry" />
        </mxCell>
        <mxCell id="3VoPNrxfCV9TI2f0J-yM-20" value="" style="endArrow=classic;html=1;rounded=0;" edge="1" parent="1">
          <mxGeometry width="50" height="50" relative="1" as="geometry">
            <mxPoint x="725" y="442.48" as="sourcePoint" />
            <mxPoint x="915" y="442" as="targetPoint" />
          </mxGeometry>
        </mxCell>
        <mxCell id="3VoPNrxfCV9TI2f0J-yM-21" value="Feign" style="edgeLabel;html=1;align=center;verticalAlign=middle;resizable=0;points=[];" vertex="1" connectable="0" parent="3VoPNrxfCV9TI2f0J-yM-20">
          <mxGeometry x="-0.1452" relative="1" as="geometry">
            <mxPoint as="offset" />
          </mxGeometry>
        </mxCell>
        <mxCell id="3VoPNrxfCV9TI2f0J-yM-22" value="" style="endArrow=classic;html=1;rounded=0;" edge="1" parent="1">
          <mxGeometry width="50" height="50" relative="1" as="geometry">
            <mxPoint x="904" y="459" as="sourcePoint" />
            <mxPoint x="724" y="459.1" as="targetPoint" />
          </mxGeometry>
        </mxCell>
        <mxCell id="3VoPNrxfCV9TI2f0J-yM-23" value="" style="dashed=0;outlineConnect=0;html=1;align=center;labelPosition=center;verticalLabelPosition=bottom;verticalAlign=top;shape=mxgraph.weblogos.json_2" vertex="1" parent="1">
          <mxGeometry x="800" y="463" width="50" height="15.2" as="geometry" />
        </mxCell>
        <mxCell id="3VoPNrxfCV9TI2f0J-yM-24" value="tasas de cambio&lt;div&gt;&lt;br&gt;&lt;/div&gt;" style="text;html=1;align=center;verticalAlign=middle;resizable=0;points=[];autosize=1;strokeColor=none;fillColor=none;" vertex="1" parent="1">
          <mxGeometry x="781" y="474.20000000000005" width="110" height="40" as="geometry" />
        </mxCell>
        <mxCell id="3VoPNrxfCV9TI2f0J-yM-25" value="Port:8080" style="rounded=0;whiteSpace=wrap;html=1;fillColor=#B0E3E6;" vertex="1" parent="1">
          <mxGeometry x="613" y="290" width="80" height="27" as="geometry" />
        </mxCell>
        <mxCell id="3VoPNrxfCV9TI2f0J-yM-26" style="edgeStyle=none;curved=1;rounded=0;orthogonalLoop=1;jettySize=auto;html=1;fontSize=12;startSize=8;endSize=8;" edge="1" parent="1" source="3VoPNrxfCV9TI2f0J-yM-16">
          <mxGeometry relative="1" as="geometry">
            <mxPoint x="652.5" y="260" as="sourcePoint" />
            <mxPoint x="650" y="290" as="targetPoint" />
          </mxGeometry>
        </mxCell>
        <mxCell id="3VoPNrxfCV9TI2f0J-yM-28" value="swagger&amp;nbsp;&lt;div&gt;&lt;br&gt;&lt;/div&gt;" style="rounded=1;whiteSpace=wrap;html=1;fillColor=#EFFF67;" vertex="1" parent="1">
          <mxGeometry x="928.13" y="330" width="120" height="60" as="geometry" />
        </mxCell>
        <mxCell id="3VoPNrxfCV9TI2f0J-yM-30" value="" style="endArrow=classic;html=1;rounded=0;" edge="1" parent="1">
          <mxGeometry width="50" height="50" relative="1" as="geometry">
            <mxPoint x="770" y="360" as="sourcePoint" />
            <mxPoint x="930" y="360" as="targetPoint" />
          </mxGeometry>
        </mxCell>
        <mxCell id="3VoPNrxfCV9TI2f0J-yM-33" value="arquitectura microservicio&lt;div&gt;ms-conversiondivisas&lt;/div&gt;" style="text;html=1;align=center;verticalAlign=middle;whiteSpace=wrap;rounded=1;strokeColor=default;" vertex="1" parent="1">
          <mxGeometry x="1000" y="190" width="138.13" height="50" as="geometry" />
        </mxCell>
        <mxCell id="3VoPNrxfCV9TI2f0J-yM-36" value="&lt;div&gt;logs formato json&lt;/div&gt;" style="text;html=1;align=center;verticalAlign=middle;resizable=0;points=[];autosize=1;strokeColor=none;fillColor=none;" vertex="1" parent="1">
          <mxGeometry x="412.5" y="456.2" width="110" height="30" as="geometry" />
        </mxCell>
        <mxCell id="3VoPNrxfCV9TI2f0J-yM-37" value="" style="dashed=0;outlineConnect=0;html=1;align=center;labelPosition=center;verticalLabelPosition=bottom;verticalAlign=top;shape=mxgraph.weblogos.json_2" vertex="1" parent="1">
          <mxGeometry x="438" y="449" width="55" height="14" as="geometry" />
        </mxCell>
        <mxCell id="3VoPNrxfCV9TI2f0J-yM-39" value="" style="endArrow=classic;html=1;rounded=0;" edge="1" parent="1">
          <mxGeometry width="50" height="50" relative="1" as="geometry">
            <mxPoint x="465" y="224.5" as="sourcePoint" />
            <mxPoint x="625" y="224.5" as="targetPoint" />
          </mxGeometry>
        </mxCell>
      </root>
    </mxGraphModel>
  </diagram>
</mxfile>
